<svg width="113" height="62" viewBox="0 0 113 62" fill="none" xmlns="http://www.w3.org/2000/svg">
<path d="M78.0001 11.7052C71.1782 9.3901 63.2338 8.24611 55.1712 8.41786C47.1087 8.58961 39.2903 10.0694 32.7047 12.6701C26.119 15.2707 21.0619 18.8755 18.1729 23.0285C15.2839 27.1815 14.6927 31.6962 16.4741 36.0018C18.2555 40.3073 22.3295 44.2102 28.1808 47.2171C34.0322 50.2239 41.3981 52.1996 49.3472 52.8942C57.2963 53.5888 65.4714 52.9713 72.8389 51.1196C80.2063 49.2679 86.4352 46.2653 90.7377 42.4914L73.4918 36.6388C71.3406 38.5257 68.2261 40.0271 64.5424 40.9529C60.8587 41.8787 56.7711 42.1875 52.7966 41.8402C48.8221 41.4929 45.1391 40.5051 42.2134 39.0016C39.2877 37.4982 37.2507 35.5468 36.36 33.394C35.4693 31.2412 35.7649 28.9839 37.2094 26.9074C38.654 24.8309 41.1825 23.0285 44.4753 21.7281C47.7681 20.4278 51.6773 19.6879 55.7086 19.602C59.7399 19.5162 63.7121 20.0882 67.123 21.2457L78.0001 11.7052Z" fill="white"/>
<path d="M78.0001 11.7052C73.4705 10.168 68.4227 9.13947 63.1447 8.67825C57.8667 8.21703 52.462 8.33216 47.2391 9.01708C42.0162 9.70199 37.0774 10.9433 32.7047 12.6701C28.332 14.3968 24.611 16.5753 21.7542 19.0811L39.0001 24.9336C40.4285 23.6808 42.289 22.5915 44.4753 21.7281C46.6617 20.8647 49.1311 20.2441 51.7425 19.9016C54.354 19.5592 57.0563 19.5016 59.6953 19.7322C62.3343 19.9628 64.8583 20.4771 67.123 21.2457L78.0001 11.7052Z" fill="black"/>
<ellipse rx="11.3824" ry="9.04269" transform="matrix(0.946957 0.32136 -0.751785 0.659409 56.2452 30.7865)" fill="black"/>
<path d="M67.0238 34.4443C67.9166 33.6613 68.5218 32.7913 68.8049 31.884C69.088 30.9767 69.0435 30.05 68.6739 29.1566C68.3042 28.2632 67.6168 27.4208 66.6507 26.6773C65.6846 25.9339 64.4588 25.304 63.0433 24.8236C61.6279 24.3433 60.0504 24.0219 58.401 23.8777C56.7517 23.7336 55.0627 23.7696 53.4305 23.9836C51.7984 24.1976 50.255 24.5855 48.8885 25.1252C47.522 25.6648 46.3592 26.3456 45.4665 27.1286L56.2452 30.7865L67.0238 34.4443Z" fill="white"/>
</svg>
